<svg width="512" height="512" viewBox="0 0 512 512" xmlns="http://www.w3.org/2000/svg">
  <!-- Background circle with gradient -->
  <defs>
    <linearGradient id="bgGradient" x1="0%" y1="0%" x2="100%" y2="100%">
      <stop offset="0%" style="stop-color:#4F7CFF;stop-opacity:1" />
      <stop offset="100%" style="stop-color:#2E5BDB;stop-opacity:1" />
    </linearGradient>
    <linearGradient id="gearGradient" x1="0%" y1="0%" x2="100%" y2="100%">
      <stop offset="0%" style="stop-color:#FFFFFF;stop-opacity:1" />
      <stop offset="100%" style="stop-color:#E8EEFF;stop-opacity:1" />
    </linearGradient>
    <filter id="shadow">
      <feDropShadow dx="0" dy="4" stdDeviation="8" flood-opacity="0.3"/>
    </filter>
  </defs>
  
  <!-- Main background -->
  <rect width="512" height="512" rx="115" fill="url(#bgGradient)"/>
  
  <!-- Gear icon (representing services/system) -->
  <g transform="translate(256, 256)" filter="url(#shadow)">
    <!-- Main gear -->
    <path d="M 0,-120 L 20,-100 L 20,-70 L 50,-70 L 70,-90 L 90,-70 L 70,-50 L 70,-20 L 100,-20 L 120,0 L 100,20 L 70,20 L 70,50 L 90,70 L 70,90 L 50,70 L 20,70 L 20,100 L 0,120 L -20,100 L -20,70 L -50,70 L -70,90 L -90,70 L -70,50 L -70,20 L -100,20 L -120,0 L -100,-20 L -70,-20 L -70,-50 L -90,-70 L -70,-90 L -50,-70 L -20,-70 L -20,-100 Z" 
          fill="url(#gearGradient)" stroke="#2E5BDB" stroke-width="4"/>
    
    <!-- Center circle -->
    <circle cx="0" cy="0" r="45" fill="#4F7CFF" stroke="#FFFFFF" stroke-width="6"/>
    
    <!-- Power symbol in center -->
    <g transform="scale(0.8)">
      <path d="M 0,-25 L 0,5" stroke="#FFFFFF" stroke-width="8" stroke-linecap="round" fill="none"/>
      <path d="M -15,-15 A 25 25 0 1 1 15,-15" stroke="#FFFFFF" stroke-width="8" stroke-linecap="round" fill="none"/>
    </g>
  </g>
  
  <!-- Small accent dots for design -->
  <circle cx="100" cy="100" r="8" fill="#FFFFFF" opacity="0.3"/>
  <circle cx="412" cy="100" r="6" fill="#FFFFFF" opacity="0.25"/>
  <circle cx="100" cy="412" r="6" fill="#FFFFFF" opacity="0.25"/>
  <circle cx="412" cy="412" r="8" fill="#FFFFFF" opacity="0.3"/>
</svg>

